<svg width="18" height="26" viewBox="0 0 18 26" fill="none" xmlns="http://www.w3.org/2000/svg">
<path d="M17.9689 15.9625C17.813 16.7955 16.0878 17.7326 15.3188 16.3269C14.6848 15.1607 12.9285 12.4743 12.3465 11.5788L6.98391 1.87436C6.00701 0.114652 3.79338 -0.52051 2.03703 0.458265C-0.363661 1.87436 0.0208655 3.89439 0.0208655 9.20476C0.176755 8.37176 2.03703 7.94485 2.80608 9.35054C3.57514 10.7562 11.0578 24.2716 11.0578 24.2716C12.0347 26.0314 14.9031 26.25 16.0463 25.7398C17.1063 25.2712 17.7507 24.1363 17.8546 22.9284C18.1248 21.5123 17.9169 19.3465 17.9689 15.9625Z" fill="url(#paint0_linear_2022_21)"/>
<defs>
<linearGradient id="paint0_linear_2022_21" x1="2.19571" y1="1.5013" x2="16.2341" y2="24.2899" gradientUnits="userSpaceOnUse">
<stop stop-color="#FFD403"/>
<stop offset="1" stop-color="#2F5B0B"/>
</linearGradient>
</defs>
</svg>
